<?xml version="1.0" encoding="UTF-8" standalone="no"?>
<!-- Created with Inkscape (http://www.inkscape.org/) -->

<svg
   width="43.127083mm"
   height="43.127083mm"
   viewBox="0 0 43.127083 43.127082"
   version="1.1"
   id="svg1"
   xml:space="preserve"
   inkscape:version="1.4 (e7c3feb100, 2024-10-09)"
   sodipodi:docname="Profilbild.svg"
   inkscape:export-filename="../Profilbild.png"
   inkscape:export-xdpi="301.54602"
   inkscape:export-ydpi="301.54602"
   xmlns:inkscape="http://www.inkscape.org/namespaces/inkscape"
   xmlns:sodipodi="http://sodipodi.sourceforge.net/DTD/sodipodi-0.dtd"
   xmlns="http://www.w3.org/2000/svg"
   xmlns:svg="http://www.w3.org/2000/svg"><sodipodi:namedview
     id="namedview1"
     pagecolor="#ffffff"
     bordercolor="#000000"
     borderopacity="0.25"
     inkscape:showpageshadow="2"
     inkscape:pageopacity="0.0"
     inkscape:pagecheckerboard="0"
     inkscape:deskcolor="#d1d1d1"
     inkscape:document-units="mm"
     inkscape:zoom="4"
     inkscape:cx="57.625"
     inkscape:cy="79.625"
     inkscape:window-width="1918"
     inkscape:window-height="1046"
     inkscape:window-x="0"
     inkscape:window-y="0"
     inkscape:window-maximized="1"
     inkscape:current-layer="g187"
     inkscape:export-bgcolor="#33ff33ff"><inkscape:page
       x="0"
       y="0"
       width="43.127083"
       height="43.127083"
       id="page2"
       margin="0"
       bleed="0" /></sodipodi:namedview><defs
     id="defs1"><linearGradient
       id="swatch13"
       inkscape:swatch="solid"><stop
         style="stop-color:#000000;stop-opacity:1;"
         offset="0"
         id="stop13" /></linearGradient></defs><circle
     style="fill:#33ff33;fill-opacity:1;stroke-width:1;stroke-linecap:round;stroke-linejoin:round"
     id="path1"
     cx="21.563541"
     cy="21.563541"
     r="21.563541"
     inkscape:label="Background" /><g
     inkscape:groupmode="layer"
     id="g187"
     inkscape:label="Raccoon"
     style="display:inline"
     transform="translate(-111.21494,-65.385481)"><circle
       style="fill:#002200;stroke:none;stroke-width:1.05833;fill-opacity:1"
       id="circle181"
       cx="132.77849"
       cy="97.362335"
       inkscape:label="Nose"
       r="2.1166666" /><path
       d="m 127.25204,86.779716 c 0.77393,0.0087 1.57011,0.185664 2.22674,0.576192 0.78807,0.468703 1.49851,1.210024 1.80764,2.073259 0.29436,0.821992 0.25445,1.723385 -0.0744,2.618444 -0.34399,0.936123 -0.88711,1.771019 -1.53996,2.566769 -0.63239,0.770809 -1.34272,1.478582 -2.08049,2.149223 -0.95033,0.863863 -1.96878,1.65569 -3.01067,2.403987 -0.4617,0.3316 -0.97261,0.682313 -1.4087,0.96067 -0.34183,0.21819 -0.74239,0.16064 -0.98185,0.007 -0.35902,-0.230821 -0.55691,-0.355422 -1.03818,-0.751372 -0.74198,-0.610439 -1.41091,-1.264339 -2.23346,-2.150773 -0.58974,-0.635549 -1.20422,-1.340244 -1.70377,-1.952853 -0.7193,-0.882086 -0.78027,-0.950183 -0.85835,-1.094507 -0.15025,-0.27775 -0.14999,-0.655039 0.0641,-0.959631 0.0327,-0.04653 0.11703,-0.150903 0.58033,-0.601514 0.55323,-0.538066 0.87129,-0.824046 1.31103,-1.211295 1.03951,-0.915432 2.12962,-1.775094 3.29024,-2.531112 0.80936,-0.527209 1.70932,-1.037985 2.54506,-1.391646 0.87881,-0.371887 1.82696,-0.656661 2.77451,-0.70435 0.10918,-0.0055 0.21965,-0.0074 0.33021,-0.0062 z m -1.10897,3.814754 a 1.190625,1.190625 0 0 0 -1.19063,1.190625 1.190625,1.190625 0 0 0 1.19063,1.190625 1.190625,1.190625 0 0 0 1.19062,-1.190625 1.190625,1.190625 0 0 0 -1.19062,-1.190625 z"
       style="opacity:1;fill:#002200;stroke-width:1.852;stroke-linecap:round;stroke-linejoin:round;fill-opacity:1"
       id="path181"
       inkscape:label="Left Eye Patch" /><path
       d="m 138.30474,86.779716 c -0.77393,0.0087 -1.57011,0.185664 -2.22674,0.576192 -0.78807,0.468703 -1.49851,1.210024 -1.80764,2.073259 -0.29436,0.821992 -0.25445,1.723385 0.0744,2.618444 0.34399,0.936123 0.88711,1.771019 1.53996,2.566769 0.63239,0.770809 1.34272,1.478582 2.08049,2.149223 0.95033,0.863863 1.96878,1.65569 3.01067,2.403987 0.4617,0.3316 0.97261,0.682313 1.4087,0.96067 0.34183,0.21819 0.74239,0.16064 0.98185,0.007 0.35902,-0.230821 0.55691,-0.355422 1.03818,-0.751372 0.74198,-0.610439 1.41091,-1.264339 2.23346,-2.150773 0.58974,-0.635549 1.20422,-1.340244 1.70377,-1.952853 0.7193,-0.882086 0.78027,-0.950183 0.85835,-1.094507 0.15025,-0.27775 0.14999,-0.655039 -0.0641,-0.959631 -0.0327,-0.04653 -0.11703,-0.150903 -0.58033,-0.601514 -0.55323,-0.538066 -0.87129,-0.824046 -1.31103,-1.211295 -1.03951,-0.915432 -2.12962,-1.775094 -3.29024,-2.531112 -0.80936,-0.527209 -1.70932,-1.037985 -2.54506,-1.391646 -0.87881,-0.371887 -1.82696,-0.656661 -2.77451,-0.70435 -0.10918,-0.0055 -0.21965,-0.0074 -0.33021,-0.0062 z m 1.10897,3.814754 a 1.190625,1.190625 0 0 1 1.19063,1.190625 1.190625,1.190625 0 0 1 -1.19063,1.190625 1.190625,1.190625 0 0 1 -1.19062,-1.190625 1.190625,1.190625 0 0 1 1.19062,-1.190625 z"
       style="opacity:1;fill:#002200;stroke-width:1.852;stroke-linecap:round;stroke-linejoin:round;fill-opacity:1"
       id="path182"
       inkscape:label="Right Eye Patch" /><g
       id="g184"
       inkscape:label="Left Ear"
       style="display:inline"
       transform="translate(0.88436123,0.27701576)"><path
         style="opacity:1;fill:none;stroke:#002200;stroke-width:1.85208;stroke-linecap:round;stroke-linejoin:round;stroke-dasharray:none;stroke-opacity:1;paint-order:normal"
         d="m 115.9409,83.194693 c 0,0 -1.05454,-8.2841 3.47113,-8.902967 2.44289,-0.334056 5.47064,4.915421 5.47064,4.915421"
         id="path183"
         sodipodi:nodetypes="csc" /><path
         style="opacity:1;fill:#002200;fill-opacity:1;stroke:#002200;stroke-width:1.85208;stroke-linecap:round;stroke-linejoin:round;stroke-dasharray:none;stroke-opacity:1;paint-order:normal"
         d="m 119.73678,77.957508 c 0.54641,-0.194152 2.10184,2.607123 2.10184,2.607123 l -2.50149,1.115526 c 0,0 -0.30514,-3.472218 0.39965,-3.722649 z"
         id="path184"
         sodipodi:nodetypes="sccs" /></g><g
       id="g186"
       inkscape:label="Right Ear"
       style="display:inline"
       inkscape:transform-center-x="-12.42332"
       inkscape:transform-center-y="-18.62642"
       transform="matrix(-1,0,0,1,264.67264,0.27701576)"><path
         style="opacity:1;fill:none;stroke:#002200;stroke-width:1.85208;stroke-linecap:round;stroke-linejoin:round;stroke-dasharray:none;stroke-opacity:1;paint-order:normal"
         d="m 115.9409,83.194693 c 0,0 -1.05454,-8.2841 3.47113,-8.902967 2.44289,-0.334056 5.47064,4.915421 5.47064,4.915421"
         id="path185"
         sodipodi:nodetypes="csc" /><path
         style="opacity:1;fill:#002200;fill-opacity:1;stroke:#002200;stroke-width:1.85208;stroke-linecap:round;stroke-linejoin:round;stroke-dasharray:none;stroke-opacity:1;paint-order:normal"
         d="m 119.73678,77.957508 c 0.54641,-0.194152 2.10184,2.607123 2.10184,2.607123 l -2.50149,1.115526 c 0,0 -0.30514,-3.472218 0.39965,-3.722649 z"
         id="path186"
         sodipodi:nodetypes="sccs" /></g></g></svg>
