<?xml version="1.0" encoding="windows-1252"?>
<!-- Generator: Adobe Illustrator 25.2.0, SVG Export Plug-In . SVG Version: 6.00 Build 0)  -->
<svg version="1.1" baseProfile="tiny" id="Lager_1" xmlns="http://www.w3.org/2000/svg" xmlns:xlink="http://www.w3.org/1999/xlink" x="0px" y="0px" viewBox="0 0 51.8 30" overflow="visible" xml:space="preserve">
<path d="M42.7,20.8c0,1-0.4,1.6-1.3,1.6c-0.9,0-1.3-0.5-1.3-1.6V9.1h-9v9.5c0,3.3,0.8,5.9,2.3,7.8c2,2.4,4.7,3.5,8,3.5s6-1.1,8-3.5  c1.6-1.9,2.3-4.5,2.3-7.8V9.1h-9V20.8z"/>
<path d="M26.2,20.4c-2.6,0-4.8,2.2-4.8,4.8c0,2.7,2.2,4.8,4.8,4.8c2.7,0,4.8-2.1,4.8-4.8C31,22.5,28.9,20.4,26.2,20.4z"/>
<rect x="11.2" y="9.1" width="9.1" height="20.2"/>
<rect y="0" width="9.1" height="29.3"/>
</svg>