<?xml version="1.0" encoding="UTF-8" standalone="no"?>
<!-- Created with Inkscape (http://www.inkscape.org/) -->

<svg
   width="33.955158mm"
   height="26.642277mm"
   viewBox="0 0 33.955158 26.642277"
   version="1.1"
   id="svg1"
   xml:space="preserve"
   inkscape:version="1.4.2 (ebf0e940d0, 2025-05-08)"
   sodipodi:docname="raccoon_logo.svg"
   inkscape:export-filename="../Exports/raccoon_logo.svg"
   inkscape:export-xdpi="96"
   inkscape:export-ydpi="96"
   xmlns:inkscape="http://www.inkscape.org/namespaces/inkscape"
   xmlns:sodipodi="http://sodipodi.sourceforge.net/DTD/sodipodi-0.dtd"
   xmlns="http://www.w3.org/2000/svg"
   xmlns:svg="http://www.w3.org/2000/svg"><sodipodi:namedview
     id="namedview1"
     pagecolor="#ffffff"
     bordercolor="#999999"
     borderopacity="1"
     inkscape:showpageshadow="2"
     inkscape:pageopacity="0"
     inkscape:pagecheckerboard="0"
     inkscape:deskcolor="#d1d1d1"
     inkscape:document-units="mm"
     inkscape:zoom="2"
     inkscape:cx="65.25"
     inkscape:cy="59.5"
     inkscape:window-width="1920"
     inkscape:window-height="1011"
     inkscape:window-x="0"
     inkscape:window-y="0"
     inkscape:window-maximized="1"
     inkscape:current-layer="layer2"
     showguides="false" /><defs
     id="defs1"><inkscape:path-effect
       effect="mirror_symmetry"
       start_point="119.0625,156.81456"
       end_point="119.0625,183.45684"
       center_point="119.0625,170.1357"
       id="path-effect1"
       is_visible="true"
       lpeversion="1.2"
       lpesatellites=""
       mode="vertical"
       discard_orig_path="false"
       fuse_paths="false"
       oposite_fuse="false"
       split_items="false"
       split_open="false"
       link_styles="false" /><inkscape:path-effect
       effect="mirror_symmetry"
       start_point="119.0625,148.56354"
       end_point="119.0625,191.69062"
       center_point="119.0625,170.12708"
       id="path-effect44"
       is_visible="true"
       lpeversion="1.2"
       lpesatellites=""
       mode="vertical"
       discard_orig_path="false"
       fuse_paths="false"
       oposite_fuse="false"
       split_items="false"
       split_open="false"
       link_styles="false" /><inkscape:path-effect
       effect="mirror_symmetry"
       start_point="119.0625,148.56354"
       end_point="119.0625,191.69062"
       center_point="119.0625,170.12708"
       id="path-effect43"
       is_visible="true"
       lpeversion="1.2"
       lpesatellites=""
       mode="vertical"
       discard_orig_path="false"
       fuse_paths="false"
       oposite_fuse="false"
       split_items="false"
       split_open="false"
       link_styles="false" /><inkscape:path-effect
       effect="mirror_symmetry"
       start_point="119.0625,148.56354"
       end_point="119.0625,191.69062"
       center_point="119.0625,170.12708"
       id="path-effect42"
       is_visible="true"
       lpeversion="1.2"
       lpesatellites=""
       mode="vertical"
       discard_orig_path="false"
       fuse_paths="false"
       oposite_fuse="false"
       split_items="false"
       split_open="false"
       link_styles="false" /><inkscape:path-effect
       effect="fillet_chamfer"
       id="path-effect40"
       is_visible="true"
       lpeversion="1"
       nodesatellites_param="F,0,0,1,0,0.69,0,1 @ F,0,0,1,0,0,0,1 @ F,0,0,1,0,0,0,1 @ F,0,0,1,0,0,0,1 @ F,0,0,1,0,0.69,0,1 @ F,0,0,1,0,0,0,1"
       radius="0"
       unit="px"
       method="auto"
       mode="F"
       chamfer_steps="1"
       flexible="false"
       use_knot_distance="true"
       apply_no_radius="true"
       apply_with_radius="true"
       only_selected="false"
       hide_knots="false" /><inkscape:path-effect
       effect="fillet_chamfer"
       id="path-effect38"
       is_visible="true"
       lpeversion="1"
       nodesatellites_param="F,0,0,1,0,1.055,0,1 @ F,0,0,1,0,0,0,1 @ F,0,0,1,0,0,0,1 @ F,0,0,1,0,0,0,1 @ F,0,0,1,0,1.4,0,1"
       radius="0"
       unit="px"
       method="auto"
       mode="F"
       chamfer_steps="1"
       flexible="false"
       use_knot_distance="true"
       apply_no_radius="true"
       apply_with_radius="true"
       only_selected="false"
       hide_knots="false" /><inkscape:path-effect
       effect="fillet_chamfer"
       id="path-effect36"
       is_visible="true"
       lpeversion="1"
       nodesatellites_param="F,0,0,1,0,0.69,0,1 @ F,0,0,1,0,0,0,1 @ F,0,0,1,0,0,0,1 @ F,0,0,1,0,0,0,1 @ F,0,0,1,0,0.69,0,1 @ F,0,0,1,0,0,0,1"
       radius="0"
       unit="px"
       method="auto"
       mode="F"
       chamfer_steps="1"
       flexible="false"
       use_knot_distance="true"
       apply_no_radius="true"
       apply_with_radius="true"
       only_selected="false"
       hide_knots="false" /><inkscape:path-effect
       effect="fillet_chamfer"
       id="path-effect23"
       is_visible="true"
       lpeversion="1"
       nodesatellites_param="F,0,0,1,0,1.055,0,1 @ F,0,0,1,0,0,0,1 @ F,0,0,1,0,0,0,1 @ F,0,0,1,0,0,0,1 @ F,0,0,1,0,1.4,0,1"
       radius="0"
       unit="px"
       method="auto"
       mode="F"
       chamfer_steps="1"
       flexible="false"
       use_knot_distance="true"
       apply_no_radius="true"
       apply_with_radius="true"
       only_selected="false"
       hide_knots="false" /><inkscape:path-effect
       effect="fillet_chamfer"
       id="path-effect21"
       is_visible="true"
       lpeversion="1"
       nodesatellites_param="F,0,0,1,0,1.055,0,1 @ F,0,0,1,0,0,0,1 @ F,0,0,1,0,0,0,1 @ F,0,0,1,0,0,0,1 @ F,0,0,1,0,1.4,0,1"
       radius="0"
       unit="px"
       method="auto"
       mode="F"
       chamfer_steps="1"
       flexible="false"
       use_knot_distance="true"
       apply_no_radius="true"
       apply_with_radius="true"
       only_selected="false"
       hide_knots="false" /><inkscape:path-effect
       effect="fillet_chamfer"
       id="path-effect20"
       is_visible="true"
       lpeversion="1"
       nodesatellites_param="F,0,0,1,0,0,0,1 @ F,0,0,1,0,0,0,1 @ F,0,0,1,0,0,0,1 @ F,0,0,1,0,0,0,1 @ F,0,0,1,0,0,0,1 @ F,0,0,1,0,0,0,1"
       radius="0"
       unit="px"
       method="auto"
       mode="F"
       chamfer_steps="1"
       flexible="false"
       use_knot_distance="true"
       apply_no_radius="true"
       apply_with_radius="true"
       only_selected="false"
       hide_knots="false" /><inkscape:path-effect
       effect="fillet_chamfer"
       id="path-effect15"
       is_visible="true"
       lpeversion="1"
       nodesatellites_param="F,0,0,1,0,0.69,0,1 @ F,0,0,1,0,0,0,1 @ F,0,0,1,0,0,0,1 @ F,0,0,1,0,0,0,1 @ F,0,0,1,0,0.69,0,1 @ F,0,0,1,0,0,0,1"
       radius="0"
       unit="px"
       method="auto"
       mode="F"
       chamfer_steps="1"
       flexible="false"
       use_knot_distance="true"
       apply_no_radius="true"
       apply_with_radius="true"
       only_selected="false"
       hide_knots="false" /><linearGradient
       id="swatch13"
       inkscape:swatch="solid"><stop
         style="stop-color:#000000;stop-opacity:1;"
         offset="0"
         id="stop13" /></linearGradient></defs><g
     inkscape:groupmode="layer"
     id="layer2"
     inkscape:label="Raccoon"
     style="display:inline;fill:#000000;fill-opacity:1"
     transform="translate(-102.08492,-156.81456)"><circle
       style="fill:#000000;stroke-width:0.264583;fill-opacity:1"
       id="path2"
       r="2.1166623"
       cy="180.54039"
       cx="119.06251"
       inkscape:label="Nose" /><g
       inkscape:groupmode="layer"
       id="layer1"
       inkscape:label="Mirrored"
       inkscape:path-effect="#path-effect1"
       style="fill:#000000;fill-opacity:1"><path
         d="m 113.36362,169.95552 c -1.52395,0.0431 -3.20294,0.71308 -4.86482,1.7203 -2.40605,1.45825 -4.74155,3.60264 -5.73195,4.64572 -0.2623,0.27619 -0.30898,0.79454 -0.0868,1.10277 0.64656,0.89705 1.91623,2.34502 2.73937,3.21841 0.82737,0.87789 2.03105,2.02201 2.87941,2.64583 0.30665,0.22549 0.85141,0.21895 1.1715,0.0129 1.23793,-0.79681 4.00375,-2.75483 5.96088,-4.90151 2.41765,-2.65181 3.22172,-5.30345 1.12603,-7.27139 -0.91687,-0.86097 -2.00831,-1.20659 -3.19361,-1.17305 z m -0.93637,3.81682 c 0.65707,0 1.18959,0.53303 1.18959,1.19011 0,0.65707 -0.53252,1.18959 -1.18959,1.18959 -0.65708,0 -1.18959,-0.53252 -1.18959,-1.18959 0,-0.65708 0.53251,-1.19011 1.18959,-1.19011 z m 12.33413,-3.81682 c 1.52395,0.0431 3.20294,0.71308 4.86482,1.7203 2.40605,1.45825 4.74155,3.60264 5.73195,4.64572 0.2623,0.27619 0.30898,0.79454 0.0868,1.10277 -0.64656,0.89705 -1.91623,2.34502 -2.73937,3.21841 -0.82737,0.87789 -2.03105,2.02201 -2.87941,2.64583 -0.30665,0.22549 -0.85141,0.21895 -1.1715,0.0129 -1.23793,-0.79681 -4.00375,-2.75483 -5.96088,-4.90151 -2.41765,-2.65181 -3.22172,-5.30345 -1.12603,-7.27139 0.91687,-0.86097 2.00831,-1.20659 3.19361,-1.17305 z m 0.93637,3.81682 c -0.65707,0 -1.18959,0.53303 -1.18959,1.19011 0,0.65707 0.53252,1.18959 1.18959,1.18959 0.65708,0 1.18959,-0.53252 1.18959,-1.18959 0,-0.65708 -0.53251,-1.19011 -1.18959,-1.19011 z"
         style="display:inline;opacity:1;stroke-width:0.264583;fill:#000000;fill-opacity:1"
         id="path43"
         inkscape:label="Eye Patch"
         inkscape:original-d="m 113.36362,169.95552 c -1.52395,0.0431 -3.20294,0.71308 -4.86482,1.7203 -2.40605,1.45825 -4.74155,3.60264 -5.73195,4.64572 -0.2623,0.27619 -0.30898,0.79454 -0.0868,1.10277 0.64656,0.89705 1.91623,2.34502 2.73937,3.21841 0.82737,0.87789 2.03105,2.02201 2.87941,2.64583 0.30665,0.22549 0.85141,0.21895 1.1715,0.0129 1.23793,-0.79681 4.00375,-2.75483 5.96088,-4.90151 2.41765,-2.65181 3.22172,-5.30345 1.12603,-7.27139 -0.91687,-0.86097 -2.00831,-1.20659 -3.19361,-1.17305 z m -0.93637,3.81682 c 0.65707,0 1.18959,0.53303 1.18959,1.19011 0,0.65707 -0.53252,1.18959 -1.18959,1.18959 -0.65708,0 -1.18959,-0.53252 -1.18959,-1.18959 0,-0.65708 0.53251,-1.19011 1.18959,-1.19011 z" /><g
         inkscape:groupmode="layer"
         id="layer6"
         inkscape:label="Ear"
         style="display:inline;fill:#000000;fill-opacity:1"><path
           style="display:inline;opacity:1;fill:#000000;fill-opacity:1;stroke-width:0.264583"
           d="m 109.79553,163.53286 c -0.60851,-1.03441 -0.90271,-1.48274 -1.21776,-1.9004 -0.39515,-0.52385 -1.05538,-1.34533 -1.90056,-1.11887 -0.84518,0.22646 -1.06228,1.1864 -1.13364,2.15048 -0.0501,0.677 -0.0269,1.45877 0.0363,2.45735 0.0488,0.77134 0.67184,1.14058 1.37799,0.82562 l 2.40481,-1.0726 c 0.53213,-0.23734 0.72831,-0.83937 0.43287,-1.34158 z m 18.53394,0 c 0.60851,-1.03441 0.90271,-1.48274 1.21776,-1.9004 0.39515,-0.52385 1.05538,-1.34533 1.90056,-1.11887 0.84518,0.22646 1.06228,1.1864 1.13364,2.15048 0.0501,0.677 0.0269,1.45877 -0.0363,2.45735 -0.0488,0.77134 -0.67184,1.14058 -1.37799,0.82562 l -2.40482,-1.0726 c -0.53213,-0.23734 -0.7283,-0.83937 -0.43286,-1.34158 z"
           id="path16"
           sodipodi:nodetypes="czzzcc"
           inkscape:label="Inner"
           inkscape:path-effect="#path-effect21"
           inkscape:original-d="m 110.32617,164.4447 c -0.99089,-1.71628 -1.35325,-2.28838 -1.7484,-2.81224 -0.39515,-0.52385 -1.05538,-1.34533 -1.90056,-1.11887 -0.84518,0.22646 -1.06228,1.1864 -1.13364,2.15048 -0.0714,0.96409 0.006,2.14066 0.13569,3.85325 z" /><path
           id="path34"
           style="display:inline;opacity:1;stroke-width:0.264583;fill:#000000;fill-opacity:1"
           inkscape:label="Outer"
           d="m 105.63128,157.02246 c -1.46651,0.53585 -2.53483,1.68791 -3.15997,4.02095 -0.62514,2.33304 -0.31028,5.40796 -0.28375,5.69215 0.0475,0.50922 0.49899,0.88366 1.00821,0.83612 0.50923,-0.0475 0.88313,-0.49897 0.83561,-1.0082 -0.13331,-1.42854 -0.17719,-3.33334 0.20483,-4.93595 0.38201,-1.60261 1.08323,-2.54164 1.99141,-2.85169 0.68893,-0.2352 1.43683,-0.0188 2.4777,1.00872 1.04087,1.02755 2.00392,2.40386 2.55714,3.36207 0.25572,0.44293 0.8389,0.57108 1.27434,0.30282 0.43544,-0.26825 0.57107,-0.8389 0.30282,-1.27434 -0.10188,-0.16537 -1.38554,-2.29646 -2.81931,-3.69483 -1.43377,-1.39838 -2.83838,-2.02441 -4.38903,-1.45782 z m 26.86244,0 c 1.46651,0.53585 2.53483,1.68791 3.15997,4.02095 0.62514,2.33304 0.31028,5.40796 0.28375,5.69215 -0.0475,0.50922 -0.49899,0.88366 -1.00821,0.83612 -0.50923,-0.0475 -0.88313,-0.49897 -0.83561,-1.0082 0.13331,-1.42854 0.17719,-3.33334 -0.20483,-4.93595 -0.38201,-1.60261 -1.08323,-2.54164 -1.99141,-2.85169 -0.68893,-0.2352 -1.43683,-0.0188 -2.4777,1.00872 -1.04087,1.02755 -2.00392,2.40386 -2.55714,3.36207 -0.25572,0.44293 -0.8389,0.57108 -1.27434,0.30282 -0.43544,-0.26825 -0.57107,-0.8389 -0.30282,-1.27434 0.10188,-0.16537 1.38554,-2.29646 2.81931,-3.69483 1.43377,-1.39838 2.83838,-2.02441 4.38903,-1.45782 z"
           sodipodi:nodetypes="szscszszssszs"
           inkscape:original-d="m 105.63128,157.02246 c -1.46651,0.53585 -2.53483,1.68791 -3.15997,4.02095 -0.62514,2.33304 -0.31028,5.40796 -0.28375,5.69215 0.0475,0.50922 0.49899,0.88366 1.00821,0.83612 0.50923,-0.0475 0.88313,-0.49897 0.83561,-1.0082 -0.13331,-1.42854 -0.17719,-3.33334 0.20483,-4.93595 0.38201,-1.60261 1.08323,-2.54164 1.99141,-2.85169 0.68893,-0.2352 1.43683,-0.0188 2.4777,1.00872 1.04087,1.02755 2.00392,2.40386 2.55714,3.36207 0.25572,0.44293 0.8389,0.57108 1.27434,0.30282 0.43544,-0.26825 0.57107,-0.8389 0.30282,-1.27434 -0.10188,-0.16537 -1.38554,-2.29646 -2.81931,-3.69483 -1.43377,-1.39838 -2.83838,-2.02441 -4.38903,-1.45782 z" /></g></g></g></svg>
